HIERARCHY
ROOT hip
{
	OFFSET 0.000000 -102.168968 0.000000
	CHANNELS 6 Xposition Yposition Zposition Zrotation Xrotation Yrotation
	JOINT abdomen
	{
		OFFSET 0.000000 6.096001 0.000000
		CHANNELS 3 Zrotation Xrotation Yrotation
		JOINT chest
		{
			OFFSET 0.000000 15.118080 -1.219200
			CHANNELS 3 Zrotation Xrotation Yrotation
			JOINT neck
			{
				OFFSET 0.000000 18.287994 -0.487680
				CHANNELS 3 Zrotation Xrotation Yrotation
				JOINT head
				{
					OFFSET 0.000000 5.608322 0.000000
					CHANNELS 3 Zrotation Xrotation Yrotation
					End Site
					{
						OFFSET 11.948160 -6.339828 -0.975360
					}
				}
			}
			JOINT lCollar
			{
				OFFSET 6.096000 11.948166 -1.463040
				CHANNELS 3 Zrotation Xrotation Yrotation
				JOINT lShldr
				{
					OFFSET 5.852160 0.000000 0.000000
					CHANNELS 3 Zrotation Xrotation Yrotation
					JOINT lForeArm
					{
						OFFSET 18.044161 0.000000 0.000000
						CHANNELS 3 Zrotation Xrotation Yrotation
						JOINT lHand
						{
							OFFSET 15.118080 0.000000 0.000000
							CHANNELS 3 Zrotation Xrotation Yrotation
							End Site
							{
								OFFSET -11.948160 -6.339828 -0.975360
							}
						}
					}
				}
			}
			JOINT rCollar
			{
				OFFSET -6.339839 11.948166 -1.463040
				CHANNELS 3 Zrotation Xrotation Yrotation
				JOINT rShldr
				{
					OFFSET -5.608321 0.000000 0.000000
					CHANNELS 3 Zrotation Xrotation Yrotation
					JOINT rForeArm
					{
						OFFSET -18.287998 0.000000 0.000000
						CHANNELS 3 Zrotation Xrotation Yrotation
						JOINT rHand
						{
							OFFSET -14.874243 0.000000 0.000000
							CHANNELS 3 Zrotation Xrotation Yrotation
							End Site
							{
								OFFSET 5.852160 -33.649918 2.438400
							}
						}
					}
				}
			}
		}
	}
	JOINT lThigh
	{
		OFFSET 9.509760 -2.926079 2.438400
		CHANNELS 3 Zrotation Xrotation Yrotation
		JOINT lShin
		{
			OFFSET -3.657600 -35.844475 0.000000
			CHANNELS 3 Zrotation Xrotation Yrotation
			JOINT lFoot
			{
				OFFSET 0.000000 -34.381443 -2.194560
				CHANNELS 3 Zrotation Xrotation Yrotation
				End Site
				{
					OFFSET -5.852160 -33.649918 2.438400
				}
			}
		}
	}
	JOINT rThigh
	{
		OFFSET -9.509760 -2.926079 2.438400
		CHANNELS 3 Zrotation Xrotation Yrotation
		JOINT rShin
		{
			OFFSET 3.657600 -35.844475 0.000000
			CHANNELS 3 Zrotation Xrotation Yrotation
			JOINT rFoot
			{
				OFFSET 0.000000 -34.381443 -2.194560
				CHANNELS 3 Zrotation Xrotation Yrotation
				End Site
				{
					OFFSET 0.000000 -4.389120 8.290560
				}
			}
		}
	}
}
MOTION
Frames:	10
Frame Time:	0.05
-0.531464 -1.351517 1.082135 0.000000 0.000000 0.000000 3.930337 7.717866 -0.880332 1.948723 6.233219 -3.383257 0.000000 0.000000 0.000000 0.000000 0.000000 0.000000 -17.050819 13.767784 -28.619812 5.032503 2.353975 -15.068669 -20.233448 0.582948 -82.345169 -6.999999 0.000000 0.000000 26.387768 14.820211 26.609882 20.605604 6.932578 25.941944 5.235034 2.851590 61.480331 6.999999 -40.018116 -0.000000 5.899373 -11.635969 1.508036 -2.369795 27.197195 1.001180 5.480283 -14.059009 0.242448 -5.993333 -11.533527 -1.764976 3.375249 27.363714 -1.447668 -5.771553 -14.170755 0.619660 
-0.358237 -2.004185 1.635006 0.000000 0.000000 0.243133 4.429903 10.176813 -0.957123 2.853380 7.403813 -1.613914 0.000000 0.000000 0.000000 0.000000 0.000000 0.000000 -17.258465 13.872469 -28.077408 4.406059 2.898421 -13.692307 -20.221220 0.989978 -83.125099 -6.176562 -0.564710 0.655806 26.497866 14.586428 26.581896 17.589270 6.634214 28.020390 4.910247 1.388014 54.249866 6.555359 -36.327477 -0.557319 5.981235 -12.475408 1.651343 -2.512774 30.110626 1.183395 5.548424 -16.184080 -0.052976 -6.165274 -12.230178 -1.872873 3.323441 30.147495 -1.557242 -5.555134 -16.208445 0.376130 
-0.057176 -3.114838 2.576405 0.000000 0.000000 1.326348 5.312125 14.278031 -1.182520 4.408215 9.388156 3.244133 0.000000 0.000000 0.000000 0.000000 0.000000 0.000000 -17.812859 14.134742 -26.628363 2.624175 4.394497 -10.030745 -20.155209 2.036712 -85.128799 -3.905988 -2.076425 2.414834 26.211084 13.348907 26.656231 11.819387 5.648048 30.489136 3.237167 -1.307908 41.108135 5.573578 -31.304731 -1.933950 6.138383 -14.093924 1.935583 -2.814639 35.283497 1.557709 5.711504 -19.929214 -1.235511 -6.450432 -13.352492 -2.054512 3.278865 34.985664 -1.755680 -5.215313 -19.774395 -0.683366 
0.289951 -4.383735 3.652225 0.000000 0.000000 2.901994 6.391278 18.908743 -1.600505 6.213718 11.637190 9.635872 0.000000 0.000000 0.000000 0.000000 0.000000 0.000000 -18.617859 14.471332 -24.540932 -0.242254 6.618058 -4.772179 -19.985350 3.458037 -87.855125 -0.454032 -4.253485 4.971378 25.737637 11.701968 26.788858 5.103285 4.368480 33.115364 0.162125 -3.347075 26.143042 4.519915 -25.410036 -3.758468 6.327143 -15.973660 2.277954 -3.236856 41.075191 2.069310 5.937555 -24.111252 -2.887455 -6.762617 -14.547928 -2.260250 3.271551 40.349762 -1.980966 -4.859699 -23.759089 -2.170398 
0.601376 -5.511140 4.608355 0.000000 0.000000 4.622416 7.432496 22.968218 -2.127359 7.850678 13.614070 16.117422 0.000000 0.000000 0.000000 0.000000 0.000000 0.000000 -19.567419 14.806242 -22.083307 -4.087270 9.280558 1.420927 -19.696108 4.986170 -90.804634 3.891586 -6.800604 8.031084 25.281443 10.240594 26.925095 -0.824765 3.158392 35.664196 -2.985601 -3.913121 13.655678 3.708794 -19.122591 -5.779741 6.495587 -17.597794 2.584781 -3.677608 45.847374 2.590417 6.162145 -27.545813 -4.617168 -7.009651 -15.465670 -2.426768 3.310851 44.710274 -2.182636 -4.589176 -27.032701 -3.749499 
0.795331 -6.197311 5.190688 0.000000 0.000000 6.139966 8.108078 25.376593 -2.519501 8.865296 14.805778 21.363079 0.000000 0.000000 0.000000 0.000000 0.000000 0.000000 -20.532011 15.084952 -19.521231 -8.638423 12.043034 7.896657 -19.334993 6.359486 -93.472336 8.761720 -9.417871 11.302465 25.036041 9.560832 26.999025 -4.307170 2.333802 37.888489 -4.503688 -3.873370 8.024987 3.289932 -12.935781 -7.832955 6.582068 -18.450676 2.750274 -3.917136 47.965843 2.866004 6.284138 -29.046612 -6.068192 -7.093972 -15.756410 -2.479662 3.377986 46.537170 -2.303154 -4.506802 -28.441330 -5.130635 
0.613721 -5.449103 4.558437 0.000000 0.000000 7.671345 7.331600 22.400820 -2.038183 7.764358 13.511454 24.841391 0.000000 0.000000 0.000000 0.000000 0.000000 0.000000 -21.356169 15.282338 -17.115124 -13.384089 14.595349 13.972532 -19.024786 7.188674 -95.390427 13.674857 -11.822209 14.478317 25.401663 11.427939 26.872004 -0.157435 2.231685 38.204266 0.564845 -3.930194 29.191463 3.265780 -7.340172 -9.779277 6.330979 -17.190405 2.693304 -3.773244 43.880409 2.575774 6.448231 -26.603382 -7.398459 -6.807542 -14.133209 -2.100077 3.401462 42.257423 -2.152946 -4.650594 -25.952112 -6.687938 
0.224278 -3.911016 3.257252 0.000000 0.000000 9.101596 5.907910 16.439180 -1.330476 5.546797 10.814187 26.869856 0.000000 0.000000 0.000000 0.000000 0.000000 0.000000 -21.863966 15.401303 -15.118312 -17.574499 16.748474 18.900755 -18.894934 7.381980 -95.980957 18.035328 -13.769912 17.218758 25.834328 14.191441 26.745554 7.660348 2.682247 39.726944 5.589212 0.484642 56.146305 3.514787 -2.805868 -11.454389 5.866060 -14.444740 2.510638 -3.471488 35.279453 1.967951 6.652635 -21.263008 -8.844235 -6.268908 -11.105965 -1.455685 3.460757 33.515949 -1.803209 -4.984467 -20.552889 -8.478864 
0.046769 -1.289994 2.054950 0.000000 0.000000 10.202809 5.215626 9.189846 -0.686919 3.746057 7.702278 28.974951 0.000000 0.000000 0.000000 0.000000 0.000000 0.000000 -21.868217 15.459435 -13.779043 -20.291714 18.469519 21.869354 -19.023195 6.921588 -94.645576 21.162878 -15.064411 19.148914 25.854399 15.525602 26.747452 13.500823 3.098711 50.285126 6.760440 1.469693 57.573112 3.826913 0.225744 -12.643886 5.641850 -12.662638 2.273394 -3.129682 28.388113 1.443991 6.563814 -16.381981 -10.060503 -5.819188 -9.030594 -1.118694 3.627744 26.607645 -1.541094 -5.487785 -15.633581 -9.773833 
-0.435486 -1.340859 1.082135 0.000000 0.000000 10.531849 3.841867 6.513048 -0.794298 1.948723 6.233219 27.015106 0.000000 0.000000 0.000000 0.000000 0.000000 0.000000 -21.180561 15.462255 -13.347982 -20.554781 19.806419 22.029888 -19.424366 5.475402 -90.905479 22.354044 -15.535657 19.877443 25.173752 16.373701 26.928280 17.574299 3.783844 55.485821 7.155732 0.921734 53.354404 3.971474 1.331289 -13.096381 6.071536 -14.300063 1.982933 -2.601279 29.433491 1.209518 5.767224 -15.284025 -10.607324 -5.749543 -10.275076 -1.554550 3.854104 27.820473 -1.721575 -6.112265 -14.628606 -9.972552 
